<svg width="36" height="36" viewBox="0 0 36 36" fill="none" xmlns="http://www.w3.org/2000/svg">
<path d="M18 24C20.5065 24 22.5 22.0035 22.5 19.5C22.5 16.9965 20.5065 15 18 15C15.4935 15 13.5 16.9965 13.5 19.5C13.5 22.0035 15.4935 24 18 24Z" fill="#EBEBEB"/>
<path d="M31.2255 16.779C30.872 15.0515 30.1814 13.4107 29.193 11.9505C28.2219 10.5139 26.9846 9.27663 25.548 8.3055C24.0876 7.31749 22.4469 6.62684 20.7195 6.273C19.8121 6.08899 18.8883 5.99852 17.9625 6.003V3L12 7.5L17.9625 12V9.003C18.6885 9 19.4145 9.069 20.115 9.213C21.4575 9.48811 22.7328 10.0248 23.868 10.7925C24.9876 11.5474 25.9511 12.5109 26.706 13.6305C27.878 15.3633 28.503 17.408 28.5 19.5C28.4997 20.9038 28.2193 22.2935 27.675 23.5875C27.4103 24.2108 27.0868 24.8075 26.709 25.3695C26.3297 25.9281 25.8988 26.4499 25.422 26.928C23.97 28.3773 22.1267 29.3714 20.118 29.7885C18.7211 30.0705 17.2819 30.0705 15.885 29.7885C14.5418 29.5131 13.2661 28.9759 12.1305 28.2075C11.0122 27.4533 10.0497 26.4908 9.2955 25.3725C8.12483 23.6378 7.49956 21.5927 7.5 19.5H4.5C4.5016 22.1905 5.30533 24.8195 6.8085 27.051C7.78027 28.4852 9.01629 29.7212 10.4505 30.693C12.6789 32.2012 15.3092 33.005 18 33C18.9139 32.9999 19.8255 32.908 20.721 32.7255C22.4471 32.3691 24.0868 31.6786 25.548 30.693C26.2654 30.2096 26.9341 29.6575 27.5445 29.0445C28.1558 28.4316 28.7082 27.7626 29.1945 27.0465C30.7014 24.8187 31.5046 22.1896 31.5 19.5C31.4999 18.5861 31.408 17.6745 31.2255 16.779Z" fill="#EBEBEB"/>
</svg>
